{
    "asset" : {
        "generator" : "Khronos glTF Blender I/O v1.3.48",
        "version" : "2.0"
    },
    "scene" : 0,
    "scenes" : [
        {
            "name" : "Scene",
            "nodes" : [
                1
            ]
        }
    ],
    "nodes" : [
        {
            "mesh" : 0,
            "name" : "Laptop"
        },
        {
            "children" : [
                0
            ],
            "mesh" : 1,
            "name" : "Desk.board",
            "translation" : [
                0.30000001192092896,
                0.8100000023841858,
                -0.6000000238418579
            ]
        }
    ],
    "materials" : [
        {
            "doubleSided" : true,
            "emissiveFactor" : [
                0,
                0,
                0
            ],
            "name" : "Material.001",
            "pbrMetallicRoughness" : {
                "baseColorFactor" : [
                    0.09581032395362854,
                    0.09581032395362854,
                    0.09581032395362854,
                    1
                ],
                "metallicFactor" : 0,
                "roughnessFactor" : 0.3499999940395355
            }
        },
        {
            "doubleSided" : true,
            "emissiveFactor" : [
                0,
                0,
                0
            ],
            "name" : "Screen",
            "pbrMetallicRoughness" : {
                "baseColorFactor" : [
                    0.053447872400283813,
                    0.053447872400283813,
                    0.053447872400283813,
                    1
                ],
                "metallicFactor" : 0,
                "roughnessFactor" : 0
            }
        },
        {
            "doubleSided" : true,
            "emissiveFactor" : [
                0,
                0,
                0
            ],
            "name" : "Grey",
            "pbrMetallicRoughness" : {
                "baseColorFactor" : [
                    0.800000011920929,
                    0.800000011920929,
                    0.800000011920929,
                    1
                ],
                "metallicFactor" : 0,
                "roughnessFactor" : 0.4000000059604645
            }
        },
        {
            "doubleSided" : true,
            "emissiveFactor" : [
                0,
                0,
                0
            ],
            "name" : "Material.002",
            "pbrMetallicRoughness" : {
                "baseColorFactor" : [
                    0.5785545706748962,
                    0.5785545706748962,
                    0.5785545706748962,
                    1
                ],
                "metallicFactor" : 0,
                "roughnessFactor" : 0.5
            }
        }
    ],
    "meshes" : [
        {
            "name" : "Cube.003",
            "primitives" : [
                {
                    "attributes" : {
                        "POSITION" : 0,
                        "NORMAL" : 1,
                        "TEXCOORD_0" : 2
                    },
                    "indices" : 3,
                    "material" : 0
                },
                {
                    "attributes" : {
                        "POSITION" : 4,
                        "NORMAL" : 5,
                        "TEXCOORD_0" : 6
                    },
                    "indices" : 7,
                    "material" : 1
                }
            ]
        },
        {
            "name" : "Cube.001",
            "primitives" : [
                {
                    "attributes" : {
                        "POSITION" : 8,
                        "NORMAL" : 9,
                        "TEXCOORD_0" : 10
                    },
                    "indices" : 11,
                    "material" : 2
                },
                {
                    "attributes" : {
                        "POSITION" : 12,
                        "NORMAL" : 13,
                        "TEXCOORD_0" : 14
                    },
                    "indices" : 15,
                    "material" : 3
                }
            ]
        }
    ],
    "accessors" : [
        {
            "bufferView" : 0,
            "componentType" : 5126,
            "count" : 200,
            "max" : [
                0.15499995648860931,
                0.23039308190345764,
                0.11800003051757812
            ],
            "min" : [
                -0.1550000160932541,
                0.009999990463256836,
                -0.14533323049545288
            ],
            "type" : "VEC3"
        },
        {
            "bufferView" : 1,
            "componentType" : 5126,
            "count" : 200,
            "type" : "VEC3"
        },
        {
            "bufferView" : 2,
            "componentType" : 5126,
            "count" : 200,
            "type" : "VEC2"
        },
        {
            "bufferView" : 3,
            "componentType" : 5123,
            "count" : 324,
            "type" : "SCALAR"
        },
        {
            "bufferView" : 4,
            "componentType" : 5126,
            "count" : 4,
            "max" : [
                0.14606839418411255,
                0.22143593430519104,
                -0.09692095220088959
            ],
            "min" : [
                -0.14606845378875732,
                0.030804339796304703,
                -0.14274588227272034
            ],
            "type" : "VEC3"
        },
        {
            "bufferView" : 5,
            "componentType" : 5126,
            "count" : 4,
            "type" : "VEC3"
        },
        {
            "bufferView" : 6,
            "componentType" : 5126,
            "count" : 4,
            "type" : "VEC2"
        },
        {
            "bufferView" : 7,
            "componentType" : 5123,
            "count" : 6,
            "type" : "SCALAR"
        },
        {
            "bufferView" : 8,
            "componentType" : 5126,
            "count" : 24,
            "max" : [
                0.5,
                0.009999990463256836,
                0.25
            ],
            "min" : [
                -0.5,
                -0.00999993085861206,
                -0.25
            ],
            "type" : "VEC3"
        },
        {
            "bufferView" : 9,
            "componentType" : 5126,
            "count" : 24,
            "type" : "VEC3"
        },
        {
            "bufferView" : 10,
            "componentType" : 5126,
            "count" : 24,
            "type" : "VEC2"
        },
        {
            "bufferView" : 11,
            "componentType" : 5123,
            "count" : 36,
            "type" : "SCALAR"
        },
        {
            "bufferView" : 12,
            "componentType" : 5126,
            "count" : 510,
            "max" : [
                0.5499999523162842,
                -0.010000050067901611,
                0.2500000596046448
            ],
            "min" : [
                -0.5499999523162842,
                -0.8100000619888306,
                -0.2499999701976776
            ],
            "type" : "VEC3"
        },
        {
            "bufferView" : 13,
            "componentType" : 5126,
            "count" : 510,
            "type" : "VEC3"
        },
        {
            "bufferView" : 14,
            "componentType" : 5126,
            "count" : 510,
            "type" : "VEC2"
        },
        {
            "bufferView" : 15,
            "componentType" : 5123,
            "count" : 840,
            "type" : "SCALAR"
        }
    ],
    "bufferViews" : [
        {
            "buffer" : 0,
            "byteLength" : 2400,
            "byteOffset" : 0
        },
        {
            "buffer" : 0,
            "byteLength" : 2400,
            "byteOffset" : 2400
        },
        {
            "buffer" : 0,
            "byteLength" : 1600,
            "byteOffset" : 4800
        },
        {
            "buffer" : 0,
            "byteLength" : 648,
            "byteOffset" : 6400
        },
        {
            "buffer" : 0,
            "byteLength" : 48,
            "byteOffset" : 7048
        },
        {
            "buffer" : 0,
            "byteLength" : 48,
            "byteOffset" : 7096
        },
        {
            "buffer" : 0,
            "byteLength" : 32,
            "byteOffset" : 7144
        },
        {
            "buffer" : 0,
            "byteLength" : 12,
            "byteOffset" : 7176
        },
        {
            "buffer" : 0,
            "byteLength" : 288,
            "byteOffset" : 7188
        },
        {
            "buffer" : 0,
            "byteLength" : 288,
            "byteOffset" : 7476
        },
        {
            "buffer" : 0,
            "byteLength" : 192,
            "byteOffset" : 7764
        },
        {
            "buffer" : 0,
            "byteLength" : 72,
            "byteOffset" : 7956
        },
        {
            "buffer" : 0,
            "byteLength" : 6120,
            "byteOffset" : 8028
        },
        {
            "buffer" : 0,
            "byteLength" : 6120,
            "byteOffset" : 14148
        },
        {
            "buffer" : 0,
            "byteLength" : 4080,
            "byteOffset" : 20268
        },
        {
            "buffer" : 0,
            "byteLength" : 1680,
            "byteOffset" : 24348
        }
    ],
    "buffers" : [
        {
            "byteLength" : 26028,
            "uri" : "data:application/octet-stream;base64,"
        }
    ]
}
